# xmcd CD database file generated by Grip 3.2.0
# 
# Track frame offsets:
#       150
#       14990
#       33730
#       51940
#       66655
#       83677
#       108502
#       121082
#       136972
#       156165
# 
# Disc length: 2249 seconds
# 
# Revision: 8
# Processed by: cddbd v1.5.2PL0 Copyright (c) Steve Scherf et al.
# Submitted via: Grip 3.2.0
# 
DISCID=8f08c70a
DTITLE=Eric Clapton - Money And Cigarettes
DYEAR=1983
DGENRE=Blues
TTITLE0=Everybody Oughta Make A Chance
TTITLE1=The Shape You're In
TTITLE2=Ain't Going Down
TTITLE3=I've Got A Rock N' Roll Heart
TTITLE4=Man Overboard
TTITLE5=Pretty Girl
TTITLE6=Man In Love
TTITLE7=Crosscut Saw
TTITLE8=Slow Down Linda
TTITLE9=Crazy Country Hop
EXTD=
EXTT0=
EXTT1=
EXTT2=
EXTT3=
EXTT4=
EXTT5=
EXTT6=
EXTT7=
EXTT8=
EXTT9=
PLAYORDER=
